<?xml version="1.0" encoding="iso-8859-1"?>
<!-- Generator: Adobe Illustrator 19.0.0, SVG Export Plug-In . SVG Version: 6.00 Build 0)  -->
<svg version="1.1" id="Layer_1" xmlns="http://www.w3.org/2000/svg" xmlns:xlink="http://www.w3.org/1999/xlink" x="0px" y="0px"
	 viewBox="0 0 512.001 512.001" style="enable-background:new 0 0 512.001 512.001;" xml:space="preserve">
<path style="fill:#8AE9FF;" d="M460.214,451.851l-185.168-165.23c-10.851-9.683-27.24-9.683-38.092,0L51.786,451.851
	c-19.606,17.495-7.231,49.95,19.046,49.95h370.336C467.446,501.802,479.82,469.347,460.214,451.851z"/>
<path style="fill:#248A9C;" d="M441.169,512.001H70.832c-16.24,0-30.473-9.804-36.259-24.98
	c-5.786-15.174-1.695-31.966,10.422-42.778l185.169-165.231c14.73-13.143,36.944-13.142,51.672-0.001l185.169,165.232l0,0
	c12.117,10.813,16.208,27.604,10.422,42.778C471.642,502.196,457.41,512.001,441.169,512.001z M256.001,289.556
	c-4.382,0-8.761,1.558-12.255,4.676L58.577,459.462c-6.976,6.226-7.127,14.564-4.944,20.292c2.185,5.728,7.849,11.848,17.199,11.848
	h370.336c9.35,0,15.015-6.12,17.199-11.848s2.033-14.068-4.943-20.292L268.256,294.231
	C264.763,291.115,260.381,289.556,256.001,289.556z"/>
<path style="fill:#8AE9FF;" d="M460.214,182.697L275.047,17.468c-10.851-9.683-27.24-9.683-38.092,0L51.786,182.697
	c-19.606,17.495-7.231,49.95,19.046,49.95h370.336C467.446,232.647,479.82,200.192,460.214,182.697z"/>
<g>
	<path style="fill:#248A9C;" d="M441.169,242.846H70.832c-16.24,0-30.473-9.804-36.259-24.98
		c-5.786-15.174-1.695-31.966,10.422-42.778L230.165,9.857c14.73-13.144,36.944-13.142,51.672-0.001l185.169,165.232l0,0
		c12.117,10.813,16.208,27.604,10.422,42.778C471.642,233.042,457.41,242.846,441.169,242.846z M256.001,20.401
		c-4.382,0-8.761,1.558-12.255,4.676L58.577,190.307c-6.976,6.226-7.127,14.564-4.944,20.292
		c2.185,5.728,7.849,11.848,17.199,11.848h370.336c9.35,0,15.015-6.12,17.199-11.848s2.033-14.068-4.943-20.292L268.256,25.076
		C264.763,21.96,260.381,20.401,256.001,20.401z"/>
	<path style="fill:#248A9C;" d="M142.794,156.052c-2.806,0-5.598-1.15-7.614-3.41c-3.75-4.202-3.383-10.65,0.82-14.4l4.552-4.061
		c4.204-3.749,10.651-3.383,14.4,0.821c3.75,4.202,3.383,10.65-0.82,14.4l-4.552,4.061
		C147.636,155.198,145.21,156.052,142.794,156.052z"/>
	<path style="fill:#248A9C;" d="M175.32,127.028c-2.806,0-5.598-1.15-7.614-3.409c-3.75-4.203-3.383-10.65,0.82-14.4l78.676-70.204
		c4.202-3.751,10.65-3.382,14.4,0.819c3.75,4.203,3.383,10.65-0.82,14.4l-78.676,70.204
		C180.162,126.175,177.736,127.028,175.32,127.028z"/>
</g>
<g>
</g>
<g>
</g>
<g>
</g>
<g>
</g>
<g>
</g>
<g>
</g>
<g>
</g>
<g>
</g>
<g>
</g>
<g>
</g>
<g>
</g>
<g>
</g>
<g>
</g>
<g>
</g>
<g>
</g>
</svg>
